<?xml version="1.0" encoding="UTF-8" standalone="no"?>
<!-- Created with Inkscape (http://www.inkscape.org/) -->

<svg
   xmlns:dc="http://purl.org/dc/elements/1.1/"
   xmlns:cc="http://creativecommons.org/ns#"
   xmlns:rdf="http://www.w3.org/1999/02/22-rdf-syntax-ns#"
   xmlns:svg="http://www.w3.org/2000/svg"
   xmlns="http://www.w3.org/2000/svg"
   xmlns:sodipodi="http://sodipodi.sourceforge.net/DTD/sodipodi-0.dtd"
   xmlns:inkscape="http://www.inkscape.org/namespaces/inkscape"
   width="48"
   height="24"
   viewBox="0 0 12.7 6.3500002"
   version="1.1"
   id="svg8"
   inkscape:version="0.92.4 (5da689c313, 2019-01-14)"
   sodipodi:docname="activities.svg">
  <defs
     id="defs2" />
  <sodipodi:namedview
     id="base"
     pagecolor="#ffffff"
     bordercolor="#666666"
     borderopacity="1.0"
     inkscape:pageopacity="0.0"
     inkscape:pageshadow="2"
     inkscape:zoom="15.839192"
     inkscape:cx="17.920457"
     inkscape:cy="3.0951466"
     inkscape:document-units="mm"
     inkscape:current-layer="layer1"
     showgrid="false"
     units="px"
     inkscape:window-width="1850"
     inkscape:window-height="1016"
     inkscape:window-x="70"
     inkscape:window-y="27"
     inkscape:window-maximized="1" />
  <metadata
     id="metadata5">
    <rdf:RDF>
      <cc:Work
         rdf:about="">
        <dc:format>image/svg+xml</dc:format>
        <dc:type
           rdf:resource="http://purl.org/dc/dcmitype/StillImage" />
        <dc:title></dc:title>
      </cc:Work>
    </rdf:RDF>
  </metadata>
  <g
     inkscape:label="Layer 1"
     inkscape:groupmode="layer"
     id="layer1"
     transform="translate(0,-290.64997)">
    <g
       id="g199"
       transform="translate(-0.24010905,-1.1689453e-5)">
      <rect
         transform="matrix(0,-1,-1,0,0,0)"
         y="-6.6958008"
         x="-296.82498"
         height="5.9999676"
         width="6"
         id="rect5878-5"
         style="color:#000000;display:inline;overflow:visible;visibility:visible;fill:none;stroke:none;stroke-width:1.49969923;marker:none;enable-background:accumulate" />
      <g
         transform="translate(0.52916667,0.084825)"
         id="g192">
        <path
           style="color:#000000;font-style:normal;font-variant:normal;font-weight:normal;font-stretch:normal;font-size:medium;line-height:normal;font-family:sans-serif;font-variant-ligatures:normal;font-variant-position:normal;font-variant-caps:normal;font-variant-numeric:normal;font-variant-alternates:normal;font-feature-settings:normal;text-indent:0;text-align:start;text-decoration:none;text-decoration-line:none;text-decoration-style:solid;text-decoration-color:#000000;letter-spacing:normal;word-spacing:normal;text-transform:none;writing-mode:lr-tb;direction:ltr;text-orientation:mixed;dominant-baseline:auto;baseline-shift:baseline;text-anchor:start;white-space:normal;shape-padding:0;clip-rule:nonzero;display:inline;overflow:visible;visibility:visible;opacity:1;isolation:auto;mix-blend-mode:normal;color-interpolation:sRGB;color-interpolation-filters:linearRGB;solid-color:#000000;solid-opacity:1;vector-effect:none;fill:#ffffff;fill-opacity:1;fill-rule:nonzero;stroke:none;stroke-width:0.37499902;stroke-linecap:butt;stroke-linejoin:miter;stroke-miterlimit:4;stroke-dasharray:none;stroke-dashoffset:0;stroke-opacity:1;marker:none;color-rendering:auto;image-rendering:auto;shape-rendering:auto;text-rendering:auto;enable-background:accumulate"
           d="m 1.6644608,294.67797 c -0.4718187,-0.005 -0.81707929,0.0115 -1.09935902,-0.14429 -0.14113798,-0.0779 -0.25245613,-0.20977 -0.31420705,-0.37426 -0.0617509,-0.1645 -0.0842245,-0.35985 -0.0842283,-0.60645 l -1.5e-5,-1.125 c -3.75e-6,-0.2466 0.0224624,-0.44195 0.0842283,-0.60645 0.0617509,-0.16449 0.17306907,-0.29639 0.31420705,-0.37426 0.28227973,-0.15575 0.62754032,-0.13883 1.09935902,-0.14429 h 0.0015 1.5014619 0.0015 c 0.4718187,0.005 0.8170793,-0.0115 1.099359,0.14429 0.141138,0.0779 0.2524562,0.20977 0.3142071,0.37426 0.061683,0.1645 0.084157,0.35985 0.084161,0.60645 l 1.5e-5,1.125 c 3.7e-6,0.2466 -0.022462,0.44194 -0.084228,0.60645 -0.061747,0.16449 -0.1730691,0.29639 -0.3142071,0.37426 -0.2822797,0.15575 -0.6275366,0.13884 -1.099359,0.14429 h -0.0015 -1.5014619 z m 0.00225,-0.375 h 0.00225 1.4976969 c 0.4719424,-0.006 0.7826845,-0.0224 0.919915,-0.0982 0.068778,-0.0379 0.1084344,-0.0798 0.1450192,-0.17724 0.0366,-0.0975 0.060064,-0.25246 0.06006,-0.47461 l -1.5e-5,-1.125 c -3.7e-6,-0.22215 -0.023475,-0.37715 -0.06006,-0.47461 -0.0366,-0.0975 -0.075506,-0.1393 -0.1442842,-0.17725 -0.1372342,-0.0757 -0.4487038,-0.0926 -0.92065,-0.0981 h -1.4978019 -0.00225 c -0.4719462,0.006 -0.78341574,0.0224 -0.92065,0.0981 -0.0687784,0.0379 -0.10769941,0.0798 -0.14428421,0.17725 -0.0365998,0.0975 -0.0600634,0.25246 -0.0600597,0.47461 l 1.5e-5,1.125 c 3.75e-6,0.22215 0.0234749,0.37714 0.0600597,0.47461 0.0365998,0.0975 0.0755058,0.1393 0.14428421,0.17724 0.13723426,0.0757 0.4487038,0.0926 0.92065,0.0982 z"
           id="path5876-5"
           inkscape:connector-curvature="0"
           sodipodi:nodetypes="ccsssccccccccsscccccccccscsscccccccsscccc" />
        <path
           inkscape:connector-curvature="0"
           style="color:#000000;font-style:normal;font-variant:normal;font-weight:normal;font-stretch:normal;font-size:medium;line-height:normal;font-family:sans-serif;font-variant-ligatures:normal;font-variant-position:normal;font-variant-caps:normal;font-variant-numeric:normal;font-variant-alternates:normal;font-feature-settings:normal;text-indent:0;text-align:start;text-decoration:none;text-decoration-line:none;text-decoration-style:solid;text-decoration-color:#000000;letter-spacing:normal;word-spacing:normal;text-transform:none;writing-mode:lr-tb;direction:ltr;text-orientation:mixed;dominant-baseline:auto;baseline-shift:baseline;text-anchor:start;white-space:normal;shape-padding:0;clip-rule:nonzero;display:inline;overflow:visible;visibility:visible;opacity:0.5;isolation:auto;mix-blend-mode:normal;color-interpolation:sRGB;color-interpolation-filters:linearRGB;solid-color:#000000;solid-opacity:1;vector-effect:none;fill:#e6e6e6;fill-opacity:1;fill-rule:nonzero;stroke:none;stroke-width:0.37499902;stroke-linecap:butt;stroke-linejoin:miter;stroke-miterlimit:4;stroke-dasharray:none;stroke-dashoffset:0;stroke-opacity:1;marker:none;color-rendering:auto;image-rendering:auto;shape-rendering:auto;text-rendering:auto;enable-background:accumulate"
           d="m 5.0416401,292.80297 v 0.375 H 5.416638 v 10e-4 c 0.0423,0.002 0.1168644,0.002 0.1494142,0.005 0.1146894,0.0132 0.1528342,0.0349 0.1662591,0.0483 0.013425,0.0135 0.0348,0.05 0.046875,0.16334 0.012075,0.11337 0.01245,0.28737 0.01245,0.52294 v 1.1294 c 0,0.22303 -0.023475,0.37822 -0.06006,0.47607 -0.0366,0.0979 -0.076241,0.13988 -0.1450192,0.17798 -0.137223,0.076 -0.4479726,0.0933 -0.919915,0.0989 H 4.1041451 2.7916522 c -0.3593718,0 -0.5613719,-0.0532 -0.645994,-0.10987 -0.084615,-0.0567 -0.1040019,-0.10977 -0.1040019,-0.26664 v -0.37207 h -0.374998 v 0.375 c 7.5e-4,0.21873 0.075232,0.44612 0.2709961,0.57715 0.1966264,0.1316 0.4633737,0.17285 0.8539978,0.17285 h 1.3124929 0.5632282 0.0015 c 0.4718225,-0.005 0.8170793,0.0114 1.0993591,-0.14502 0.141138,-0.0782 0.2524599,-0.21058 0.314207,-0.37573 0.061732,-0.16515 0.084195,-0.36106 0.084195,-0.60865 v -1.12939 c 0,-0.23503 0.00113,-0.41287 -0.014663,-0.5625 -0.015937,-0.14962 -0.05181,-0.28755 -0.1545404,-0.39038 -0.1027344,-0.10283 -0.2391699,-0.13876 -0.3889141,-0.15601 -0.050876,-0.006 -0.133158,-0.005 -0.191879,-0.007 z"
           id="path5887-5" />
      </g>
      <path
         id="path2"
         overflow="visible"
         font-weight="400"
         style="color:#000000;font-weight:400;line-height:normal;font-family:sans-serif;font-variant-ligatures:none;font-variant-position:normal;font-variant-caps:normal;font-variant-numeric:normal;font-variant-alternates:normal;font-feature-settings:normal;text-indent:0;text-align:start;text-decoration:none;text-decoration-line:none;text-decoration-style:solid;text-decoration-color:#000000;text-transform:none;white-space:normal;shape-padding:0;overflow:visible;isolation:auto;mix-blend-mode:normal;fill:#ffffff;stroke-width:0.36791739;marker:none"
         d="m 9.6919049,291.32497 c -1.2178068,0 -2.207505,0.9897 -2.207505,2.2075 0,1.21781 0.9896982,2.20751 2.207505,2.20751 a 2.1883735,2.1883723 0 0 0 1.3480491,-0.46835 l 1.053349,1.05334 0.391097,-0.39109 -1.053349,-1.05336 a 2.1887412,2.1887402 0 0 0 0.468359,-1.34805 c 0,-1.2178 -0.989698,-2.2075 -2.2075051,-2.2075 z m 0,0.36792 a 1.8395876,1.8395867 0 0 1 1.8395881,1.8396 1.8395876,1.8395867 0 0 1 -1.8395881,1.83959 1.8395876,1.8395867 0 0 1 -1.8395875,-1.83959 1.8395876,1.8395867 0 0 1 1.8395875,-1.8396 z"
         inkscape:connector-curvature="0" />
    </g>
  </g>
</svg>
